<?xml version="1.0" encoding="utf-8"?>
<!-- Generator: Adobe Illustrator 19.1.0, SVG Export Plug-In . SVG Version: 6.00 Build 0)  -->
<svg version="1.1" id="Layer_1" xmlns="http://www.w3.org/2000/svg" xmlns:xlink="http://www.w3.org/1999/xlink" x="0px" y="0px"
	 viewBox="0 0 100 100" enable-background="new 0 0 100 100" xml:space="preserve">
<g>
	<path fill="#FFFFFF" d="M10.9,28.4H89c3,0,5.4-2.4,5.4-5.4S92,17.6,89,17.6H10.9c-3,0-5.4,2.4-5.4,5.4S8,28.4,10.9,28.4z"/>
	<path fill="#FFFFFF" d="M89.1,71.8H10.9c-3,0-5.4,2.4-5.4,5.4s2.4,5.4,5.4,5.4H89c3,0,5.4-2.4,5.4-5.4S92,71.8,89.1,71.8z"/>
	<path fill="#FFFFFF" d="M89.1,44.7H10.9c-3,0-5.4,2.4-5.4,5.4s2.4,5.4,5.4,5.4H89c3,0,5.4-2.4,5.4-5.4S92,44.7,89.1,44.7z"/>
</g>
</svg>
