<?xml version="1.0" encoding="utf-8"?>
<!-- Generator: Adobe Illustrator 19.1.0, SVG Export Plug-In . SVG Version: 6.00 Build 0)  -->
<svg version="1.1" id="Layer_1" xmlns="http://www.w3.org/2000/svg" xmlns:xlink="http://www.w3.org/1999/xlink" x="0px" y="0px"
	 viewBox="0 0 100 100" enable-background="new 0 0 100 100" xml:space="preserve">
<path fill="#FFFFFF" d="M58.7,50.1L92.9,16c2.4-2.4,2.4-6.3,0-8.7c-2.4-2.4-6.3-2.4-8.7,0L50,41.4L15.9,7.3c-2.4-2.4-6.3-2.4-8.7,0
	c-2.4,2.4-2.4,6.3,0,8.7l34.1,34.1L7.1,84.2c-2.4,2.4-2.4,6.3,0,8.7c2.4,2.4,6.3,2.4,8.7,0L50,58.9L84.1,93c2.4,2.4,6.3,2.4,8.7,0
	c2.4-2.4,2.4-6.3,0-8.7L58.7,50.1z"/>
</svg>
